<svg width="430" height="223" viewBox="0 0 430 223" fill="none" xmlns="http://www.w3.org/2000/svg">
<path d="M11.6812 3.5341C12.6592 3.5341 13.4444 2.74721 13.4444 1.76705C13.4444 0.78689 12.6592 0 11.6812 0C10.7031 0 9.91797 0.78689 9.91797 1.76705C9.91797 2.74721 10.7031 3.5341 11.6812 3.5341Z" fill="#9747FF"/>
<path d="M31.5172 3.5341C32.4952 3.5341 33.2804 2.74721 33.2804 1.76705C33.2804 0.78689 32.4952 0 31.5172 0C30.5391 0 29.754 0.78689 29.754 1.76705C29.754 2.74721 30.5391 3.5341 31.5172 3.5341Z" fill="#9747FF"/>
<path d="M51.3532 3.5341C52.3312 3.5341 53.1164 2.74721 53.1164 1.76705C53.1164 0.78689 52.3312 0 51.3532 0C50.3751 0 49.59 0.78689 49.59 1.76705C49.59 2.74721 50.3751 3.5341 51.3532 3.5341Z" fill="#9747FF"/>
<path d="M71.1892 3.5341C72.1629 3.5341 72.9524 2.74297 72.9524 1.76705C72.9524 0.791136 72.1629 0 71.1892 0C70.2154 0 69.426 0.791136 69.426 1.76705C69.426 2.74297 70.2154 3.5341 71.1892 3.5341Z" fill="#9747FF"/>
<path d="M91.0251 3.5341C92.0031 3.5341 92.7883 2.74721 92.7883 1.76705C92.7883 0.78689 92.0031 0 91.0251 0C90.0471 0 89.2619 0.78689 89.2619 1.76705C89.2619 2.74721 90.0471 3.5341 91.0251 3.5341Z" fill="#9747FF"/>
<path d="M110.861 3.5341C111.839 3.5341 112.624 2.74721 112.624 1.76705C112.624 0.78689 111.839 0 110.861 0C109.883 0 109.098 0.78689 109.098 1.76705C109.098 2.74721 109.883 3.5341 110.861 3.5341Z" fill="#9747FF"/>
<path d="M130.697 3.5341C131.675 3.5341 132.46 2.74721 132.46 1.76705C132.46 0.78689 131.675 0 130.697 0C129.719 0 128.934 0.78689 128.934 1.76705C128.934 2.74721 129.719 3.5341 130.697 3.5341Z" fill="#9747FF"/>
<path d="M150.533 3.5341C151.511 3.5341 152.296 2.74721 152.296 1.76705C152.296 0.78689 151.511 0 150.533 0C149.555 0 148.77 0.78689 148.77 1.76705C148.77 2.74721 149.555 3.5341 150.533 3.5341Z" fill="#9747FF"/>
<path d="M170.369 3.5341C171.343 3.5341 172.132 2.74297 172.132 1.76705C172.132 0.791136 171.343 0 170.369 0C169.395 0 168.606 0.791136 168.606 1.76705C168.606 2.74297 169.395 3.5341 170.369 3.5341Z" fill="#9747FF"/>
<path d="M190.205 3.5341C191.183 3.5341 191.968 2.74721 191.968 1.76705C191.968 0.78689 191.183 0 190.205 0C189.227 0 188.442 0.78689 188.442 1.76705C188.442 2.74721 189.227 3.5341 190.205 3.5341Z" fill="#9747FF"/>
<path d="M210.041 3.5341C211.019 3.5341 211.804 2.74721 211.804 1.76705C211.804 0.78689 211.019 0 210.041 0C209.063 0 208.278 0.78689 208.278 1.76705C208.278 2.74721 209.063 3.5341 210.041 3.5341Z" fill="#9747FF"/>
<path d="M229.877 3.5341C230.855 3.5341 231.64 2.74721 231.64 1.76705C231.64 0.78689 230.855 0 229.877 0C228.899 0 228.114 0.78689 228.114 1.76705C228.114 2.74721 228.899 3.5341 229.877 3.5341Z" fill="#9747FF"/>
<path d="M249.713 3.5341C250.691 3.5341 251.476 2.74721 251.476 1.76705C251.476 0.78689 250.691 0 249.713 0C248.735 0 247.95 0.78689 247.95 1.76705C247.95 2.74721 248.735 3.5341 249.713 3.5341Z" fill="#9747FF"/>
<path d="M269.549 3.5341C270.523 3.5341 271.312 2.74297 271.312 1.76705C271.312 0.791136 270.523 0 269.549 0C268.575 0 267.786 0.791136 267.786 1.76705C267.786 2.74297 268.575 3.5341 269.549 3.5341Z" fill="#9747FF"/>
<path d="M289.385 3.5341C290.363 3.5341 291.148 2.74721 291.148 1.76705C291.148 0.78689 290.363 0 289.385 0C288.407 0 287.622 0.78689 287.622 1.76705C287.622 2.74721 288.407 3.5341 289.385 3.5341Z" fill="#9747FF"/>
<path d="M309.221 3.5341C310.199 3.5341 310.984 2.74721 310.984 1.76705C310.984 0.78689 310.199 0 309.221 0C308.243 0 307.458 0.78689 307.458 1.76705C307.458 2.74721 308.243 3.5341 309.221 3.5341Z" fill="#9747FF"/>
<path d="M329.057 3.5341C330.035 3.5341 330.82 2.74721 330.82 1.76705C330.82 0.78689 330.035 0 329.057 0C328.079 0 327.294 0.78689 327.294 1.76705C327.294 2.74721 328.079 3.5341 329.057 3.5341Z" fill="#9747FF"/>
<path d="M348.893 3.5341C349.871 3.5341 350.656 2.74721 350.656 1.76705C350.656 0.78689 349.871 0 348.893 0C347.915 0 347.13 0.78689 347.13 1.76705C347.13 2.74721 347.915 3.5341 348.893 3.5341Z" fill="#9747FF"/>
<path d="M368.729 3.5341C369.703 3.5341 370.492 2.74297 370.492 1.76705C370.492 0.791136 369.703 0 368.729 0C367.755 0 366.966 0.791136 366.966 1.76705C366.966 2.74297 367.755 3.5341 368.729 3.5341Z" fill="#9747FF"/>
<path d="M388.565 3.5341C389.543 3.5341 390.328 2.74721 390.328 1.76705C390.328 0.78689 389.543 0 388.565 0C387.587 0 386.802 0.78689 386.802 1.76705C386.802 2.74721 387.587 3.5341 388.565 3.5341Z" fill="#9747FF"/>
<path d="M408.401 3.5341C409.379 3.5341 410.164 2.74721 410.164 1.76705C410.164 0.78689 409.379 0 408.401 0C407.423 0 406.638 0.78689 406.638 1.76705C406.638 2.74721 407.423 3.5341 408.401 3.5341Z" fill="#9747FF"/>
<path d="M428.237 3.5341C429.215 3.5341 430 2.74721 430 1.76705C430 0.78689 429.215 0 428.237 0C427.259 0 426.474 0.78689 426.474 1.76705C426.474 2.74721 427.259 3.5341 428.237 3.5341Z" fill="#9747FF"/>
<path d="M1.7632 23.4134C2.74122 23.4134 3.5264 22.6265 3.5264 21.6464C3.5264 20.6662 2.74122 19.8793 1.7632 19.8793C0.785174 19.8793 0 20.6662 0 21.6464C0 22.6265 0.785174 23.4134 1.7632 23.4134Z" fill="#9747FF"/>
<path d="M21.5992 23.4134C22.573 23.4134 23.3624 22.6223 23.3624 21.6464C23.3624 20.6705 22.573 19.8793 21.5992 19.8793C20.6254 19.8793 19.836 20.6705 19.836 21.6464C19.836 22.6223 20.6254 23.4134 21.5992 23.4134Z" fill="#9747FF"/>
<path d="M41.4351 23.4134C42.4132 23.4134 43.1983 22.6265 43.1983 21.6464C43.1983 20.6662 42.4132 19.8793 41.4351 19.8793C40.4571 19.8793 39.6719 20.6662 39.6719 21.6464C39.6719 22.6265 40.4571 23.4134 41.4351 23.4134Z" fill="#9747FF"/>
<path d="M61.2711 23.4134C62.2492 23.4134 63.0343 22.6265 63.0343 21.6464C63.0343 20.6662 62.2492 19.8793 61.2711 19.8793C60.2931 19.8793 59.5079 20.6662 59.5079 21.6464C59.5079 22.6265 60.2931 23.4134 61.2711 23.4134Z" fill="#9747FF"/>
<path d="M81.1071 23.4134C82.0852 23.4134 82.8703 22.6265 82.8703 21.6464C82.8703 20.6662 82.0852 19.8793 81.1071 19.8793C80.1291 19.8793 79.3439 20.6662 79.3439 21.6464C79.3439 22.6265 80.1291 23.4134 81.1071 23.4134Z" fill="#9747FF"/>
<path d="M100.943 23.4134C101.921 23.4134 102.706 22.6265 102.706 21.6464C102.706 20.6662 101.921 19.8793 100.943 19.8793C99.9651 19.8793 99.1799 20.6662 99.1799 21.6464C99.1799 22.6265 99.9651 23.4134 100.943 23.4134Z" fill="#9747FF"/>
<path d="M120.779 23.4134C121.753 23.4134 122.542 22.6223 122.542 21.6464C122.542 20.6705 121.753 19.8793 120.779 19.8793C119.805 19.8793 119.016 20.6705 119.016 21.6464C119.016 22.6223 119.805 23.4134 120.779 23.4134Z" fill="#9747FF"/>
<path d="M140.615 23.4134C141.593 23.4134 142.378 22.6265 142.378 21.6464C142.378 20.6662 141.593 19.8793 140.615 19.8793C139.637 19.8793 138.852 20.6662 138.852 21.6464C138.852 22.6265 139.637 23.4134 140.615 23.4134Z" fill="#9747FF"/>
<path d="M160.451 23.4134C161.429 23.4134 162.214 22.6265 162.214 21.6464C162.214 20.6662 161.429 19.8793 160.451 19.8793C159.473 19.8793 158.688 20.6662 158.688 21.6464C158.688 22.6265 159.473 23.4134 160.451 23.4134Z" fill="#9747FF"/>
<path d="M180.287 23.4134C181.265 23.4134 182.05 22.6265 182.05 21.6464C182.05 20.6662 181.265 19.8793 180.287 19.8793C179.309 19.8793 178.524 20.6662 178.524 21.6464C178.524 22.6265 179.309 23.4134 180.287 23.4134Z" fill="#9747FF"/>
<path d="M200.123 23.4134C201.101 23.4134 201.886 22.6265 201.886 21.6464C201.886 20.6662 201.101 19.8793 200.123 19.8793C199.145 19.8793 198.36 20.6662 198.36 21.6464C198.36 22.6265 199.145 23.4134 200.123 23.4134Z" fill="#9747FF"/>
<path d="M219.959 23.4134C220.933 23.4134 221.722 22.6223 221.722 21.6464C221.722 20.6705 220.933 19.8793 219.959 19.8793C218.985 19.8793 218.196 20.6705 218.196 21.6464C218.196 22.6223 218.985 23.4134 219.959 23.4134Z" fill="#9747FF"/>
<path d="M239.795 23.4134C240.773 23.4134 241.558 22.6265 241.558 21.6464C241.558 20.6662 240.773 19.8793 239.795 19.8793C238.817 19.8793 238.032 20.6662 238.032 21.6464C238.032 22.6265 238.817 23.4134 239.795 23.4134Z" fill="#9747FF"/>
<path d="M259.631 23.4134C260.609 23.4134 261.394 22.6265 261.394 21.6464C261.394 20.6662 260.609 19.8793 259.631 19.8793C258.653 19.8793 257.868 20.6662 257.868 21.6464C257.868 22.6265 258.653 23.4134 259.631 23.4134Z" fill="#9747FF"/>
<path d="M279.467 23.4134C280.445 23.4134 281.23 22.6265 281.23 21.6464C281.23 20.6662 280.445 19.8793 279.467 19.8793C278.489 19.8793 277.704 20.6662 277.704 21.6464C277.704 22.6265 278.489 23.4134 279.467 23.4134Z" fill="#9747FF"/>
<path d="M299.303 23.4134C300.281 23.4134 301.066 22.6265 301.066 21.6464C301.066 20.6662 300.281 19.8793 299.303 19.8793C298.325 19.8793 297.54 20.6662 297.54 21.6464C297.54 22.6265 298.325 23.4134 299.303 23.4134Z" fill="#9747FF"/>
<path d="M319.139 23.4134C320.113 23.4134 320.902 22.6223 320.902 21.6464C320.902 20.6705 320.113 19.8793 319.139 19.8793C318.165 19.8793 317.376 20.6705 317.376 21.6464C317.376 22.6223 318.165 23.4134 319.139 23.4134Z" fill="#9747FF"/>
<path d="M338.975 23.4134C339.953 23.4134 340.738 22.6265 340.738 21.6464C340.738 20.6662 339.953 19.8793 338.975 19.8793C337.997 19.8793 337.212 20.6662 337.212 21.6464C337.212 22.6265 337.997 23.4134 338.975 23.4134Z" fill="#9747FF"/>
<path d="M358.811 23.4134C359.789 23.4134 360.574 22.6265 360.574 21.6464C360.574 20.6662 359.789 19.8793 358.811 19.8793C357.833 19.8793 357.048 20.6662 357.048 21.6464C357.048 22.6265 357.833 23.4134 358.811 23.4134Z" fill="#9747FF"/>
<path d="M378.647 23.4134C379.625 23.4134 380.41 22.6265 380.41 21.6464C380.41 20.6662 379.625 19.8793 378.647 19.8793C377.669 19.8793 376.884 20.6662 376.884 21.6464C376.884 22.6265 377.669 23.4134 378.647 23.4134Z" fill="#9747FF"/>
<path d="M398.483 23.4134C399.461 23.4134 400.246 22.6265 400.246 21.6464C400.246 20.6662 399.461 19.8793 398.483 19.8793C397.505 19.8793 396.72 20.6662 396.72 21.6464C396.72 22.6265 397.505 23.4134 398.483 23.4134Z" fill="#9747FF"/>
<path d="M418.319 23.4134C419.293 23.4134 420.082 22.6223 420.082 21.6464C420.082 20.6705 419.293 19.8793 418.319 19.8793C417.345 19.8793 416.556 20.6705 416.556 21.6464C416.556 22.6223 417.345 23.4134 418.319 23.4134Z" fill="#9747FF"/>
<path d="M11.6812 43.2928C12.6592 43.2928 13.4444 42.5059 13.4444 41.5257C13.4444 40.5456 12.6592 39.7587 11.6812 39.7587C10.7031 39.7587 9.91797 40.5456 9.91797 41.5257C9.91797 42.5059 10.7031 43.2928 11.6812 43.2928Z" fill="#9747FF"/>
<path d="M31.5172 43.2928C32.4952 43.2928 33.2804 42.5059 33.2804 41.5257C33.2804 40.5456 32.4952 39.7587 31.5172 39.7587C30.5391 39.7587 29.754 40.5456 29.754 41.5257C29.754 42.5059 30.5391 43.2928 31.5172 43.2928Z" fill="#9747FF"/>
<path d="M51.3532 43.2928C52.3312 43.2928 53.1164 42.5059 53.1164 41.5257C53.1164 40.5456 52.3312 39.7587 51.3532 39.7587C50.3751 39.7587 49.59 40.5456 49.59 41.5257C49.59 42.5059 50.3751 43.2928 51.3532 43.2928Z" fill="#9747FF"/>
<path d="M71.1892 43.2928C72.1672 43.2928 72.9524 42.5059 72.9524 41.5257C72.9524 40.5456 72.1672 39.7587 71.1892 39.7587C70.2111 39.7587 69.426 40.5456 69.426 41.5257C69.426 42.5059 70.2111 43.2928 71.1892 43.2928Z" fill="#9747FF"/>
<path d="M91.0251 43.2928C92.0031 43.2928 92.7883 42.5059 92.7883 41.5257C92.7883 40.5456 92.0031 39.7587 91.0251 39.7587C90.0471 39.7587 89.2619 40.5456 89.2619 41.5257C89.2619 42.5059 90.0471 43.2928 91.0251 43.2928Z" fill="#9747FF"/>
<path d="M110.861 43.2928C111.839 43.2928 112.624 42.5059 112.624 41.5257C112.624 40.5456 111.839 39.7587 110.861 39.7587C109.883 39.7587 109.098 40.5456 109.098 41.5257C109.098 42.5059 109.883 43.2928 110.861 43.2928Z" fill="#9747FF"/>
<path d="M130.697 43.2928C131.675 43.2928 132.46 42.5059 132.46 41.5257C132.46 40.5456 131.675 39.7587 130.697 39.7587C129.719 39.7587 128.934 40.5456 128.934 41.5257C128.934 42.5059 129.719 43.2928 130.697 43.2928Z" fill="#9747FF"/>
<path d="M150.533 43.2928C151.511 43.2928 152.296 42.5059 152.296 41.5257C152.296 40.5456 151.511 39.7587 150.533 39.7587C149.555 39.7587 148.77 40.5456 148.77 41.5257C148.77 42.5059 149.555 43.2928 150.533 43.2928Z" fill="#9747FF"/>
<path d="M170.369 43.2928C171.347 43.2928 172.132 42.5059 172.132 41.5257C172.132 40.5456 171.347 39.7587 170.369 39.7587C169.391 39.7587 168.606 40.5456 168.606 41.5257C168.606 42.5059 169.391 43.2928 170.369 43.2928Z" fill="#9747FF"/>
<path d="M190.205 43.2928C191.183 43.2928 191.968 42.5059 191.968 41.5257C191.968 40.5456 191.183 39.7587 190.205 39.7587C189.227 39.7587 188.442 40.5456 188.442 41.5257C188.442 42.5059 189.227 43.2928 190.205 43.2928Z" fill="#9747FF"/>
<path d="M210.041 43.2928C211.019 43.2928 211.804 42.5059 211.804 41.5257C211.804 40.5456 211.019 39.7587 210.041 39.7587C209.063 39.7587 208.278 40.5456 208.278 41.5257C208.278 42.5059 209.063 43.2928 210.041 43.2928Z" fill="#9747FF"/>
<path d="M229.877 43.2928C230.855 43.2928 231.64 42.5059 231.64 41.5257C231.64 40.5456 230.855 39.7587 229.877 39.7587C228.899 39.7587 228.114 40.5456 228.114 41.5257C228.114 42.5059 228.899 43.2928 229.877 43.2928Z" fill="#9747FF"/>
<path d="M249.713 43.2928C250.691 43.2928 251.476 42.5059 251.476 41.5257C251.476 40.5456 250.691 39.7587 249.713 39.7587C248.735 39.7587 247.95 40.5456 247.95 41.5257C247.95 42.5059 248.735 43.2928 249.713 43.2928Z" fill="#9747FF"/>
<path d="M269.549 43.2928C270.527 43.2928 271.312 42.5059 271.312 41.5257C271.312 40.5456 270.527 39.7587 269.549 39.7587C268.571 39.7587 267.786 40.5456 267.786 41.5257C267.786 42.5059 268.571 43.2928 269.549 43.2928Z" fill="#9747FF"/>
<path d="M289.385 43.2928C290.363 43.2928 291.148 42.5059 291.148 41.5257C291.148 40.5456 290.363 39.7587 289.385 39.7587C288.407 39.7587 287.622 40.5456 287.622 41.5257C287.622 42.5059 288.407 43.2928 289.385 43.2928Z" fill="#9747FF"/>
<path d="M309.221 43.2928C310.199 43.2928 310.984 42.5059 310.984 41.5257C310.984 40.5456 310.199 39.7587 309.221 39.7587C308.243 39.7587 307.458 40.5456 307.458 41.5257C307.458 42.5059 308.243 43.2928 309.221 43.2928Z" fill="#9747FF"/>
<path d="M329.057 43.2928C330.035 43.2928 330.82 42.5059 330.82 41.5257C330.82 40.5456 330.035 39.7587 329.057 39.7587C328.079 39.7587 327.294 40.5456 327.294 41.5257C327.294 42.5059 328.079 43.2928 329.057 43.2928Z" fill="#9747FF"/>
<path d="M348.893 43.2928C349.871 43.2928 350.656 42.5059 350.656 41.5257C350.656 40.5456 349.871 39.7587 348.893 39.7587C347.915 39.7587 347.13 40.5456 347.13 41.5257C347.13 42.5059 347.915 43.2928 348.893 43.2928Z" fill="#9747FF"/>
<path d="M368.729 43.2928C369.707 43.2928 370.492 42.5059 370.492 41.5257C370.492 40.5456 369.707 39.7587 368.729 39.7587C367.751 39.7587 366.966 40.5456 366.966 41.5257C366.966 42.5059 367.751 43.2928 368.729 43.2928Z" fill="#9747FF"/>
<path d="M388.565 43.2928C389.543 43.2928 390.328 42.5059 390.328 41.5257C390.328 40.5456 389.543 39.7587 388.565 39.7587C387.587 39.7587 386.802 40.5456 386.802 41.5257C386.802 42.5059 387.587 43.2928 388.565 43.2928Z" fill="#9747FF"/>
<path d="M408.401 43.2928C409.379 43.2928 410.164 42.5059 410.164 41.5257C410.164 40.5456 409.379 39.7587 408.401 39.7587C407.423 39.7587 406.638 40.5456 406.638 41.5257C406.638 42.5059 407.423 43.2928 408.401 43.2928Z" fill="#9747FF"/>
<path d="M428.237 43.2928C429.215 43.2928 430 42.5059 430 41.5257C430 40.5456 429.215 39.7587 428.237 39.7587C427.259 39.7587 426.474 40.5456 426.474 41.5257C426.474 42.5059 427.259 43.2928 428.237 43.2928Z" fill="#9747FF"/>
<path d="M1.7632 63.1721C2.74122 63.1721 3.5264 62.3852 3.5264 61.4051C3.5264 60.4249 2.74122 59.638 1.7632 59.638C0.785174 59.638 0 60.4249 0 61.4051C0 62.3852 0.785174 63.1721 1.7632 63.1721Z" fill="#9747FF"/>
<path d="M21.5992 63.1721C22.5772 63.1721 23.3624 62.3852 23.3624 61.4051C23.3624 60.4249 22.5772 59.638 21.5992 59.638C20.6212 59.638 19.836 60.4249 19.836 61.4051C19.836 62.3852 20.6212 63.1721 21.5992 63.1721Z" fill="#9747FF"/>
<path d="M41.4351 63.1721C42.4132 63.1721 43.1983 62.3852 43.1983 61.4051C43.1983 60.4249 42.4132 59.638 41.4351 59.638C40.4571 59.638 39.6719 60.4249 39.6719 61.4051C39.6719 62.3852 40.4571 63.1721 41.4351 63.1721Z" fill="#9747FF"/>
<path d="M61.2711 63.1721C62.2492 63.1721 63.0343 62.3852 63.0343 61.4051C63.0343 60.4249 62.2492 59.638 61.2711 59.638C60.2931 59.638 59.5079 60.4249 59.5079 61.4051C59.5079 62.3852 60.2931 63.1721 61.2711 63.1721Z" fill="#9747FF"/>
<path d="M81.1071 63.1721C82.0852 63.1721 82.8703 62.3852 82.8703 61.4051C82.8703 60.4249 82.0852 59.638 81.1071 59.638C80.1291 59.638 79.3439 60.4249 79.3439 61.4051C79.3439 62.3852 80.1291 63.1721 81.1071 63.1721Z" fill="#9747FF"/>
<path d="M100.943 63.1721C101.921 63.1721 102.706 62.3852 102.706 61.4051C102.706 60.4249 101.921 59.638 100.943 59.638C99.9651 59.638 99.1799 60.4249 99.1799 61.4051C99.1799 62.3852 99.9651 63.1721 100.943 63.1721Z" fill="#9747FF"/>
<path d="M120.779 63.1721C121.757 63.1721 122.542 62.3852 122.542 61.4051C122.542 60.4249 121.757 59.638 120.779 59.638C119.801 59.638 119.016 60.4249 119.016 61.4051C119.016 62.3852 119.801 63.1721 120.779 63.1721Z" fill="#9747FF"/>
<path d="M140.615 63.1721C141.593 63.1721 142.378 62.3852 142.378 61.4051C142.378 60.4249 141.593 59.638 140.615 59.638C139.637 59.638 138.852 60.4249 138.852 61.4051C138.852 62.3852 139.637 63.1721 140.615 63.1721Z" fill="#9747FF"/>
<path d="M160.451 63.1721C161.429 63.1721 162.214 62.3852 162.214 61.4051C162.214 60.4249 161.429 59.638 160.451 59.638C159.473 59.638 158.688 60.4249 158.688 61.4051C158.688 62.3852 159.473 63.1721 160.451 63.1721Z" fill="#9747FF"/>
<path d="M180.287 63.1721C181.265 63.1721 182.05 62.3852 182.05 61.4051C182.05 60.4249 181.265 59.638 180.287 59.638C179.309 59.638 178.524 60.4249 178.524 61.4051C178.524 62.3852 179.309 63.1721 180.287 63.1721Z" fill="#9747FF"/>
<path d="M200.123 63.1721C201.101 63.1721 201.886 62.3852 201.886 61.4051C201.886 60.4249 201.101 59.638 200.123 59.638C199.145 59.638 198.36 60.4249 198.36 61.4051C198.36 62.3852 199.145 63.1721 200.123 63.1721Z" fill="#9747FF"/>
<path d="M219.959 63.1721C220.937 63.1721 221.722 62.3852 221.722 61.4051C221.722 60.4249 220.937 59.638 219.959 59.638C218.981 59.638 218.196 60.4249 218.196 61.4051C218.196 62.3852 218.981 63.1721 219.959 63.1721Z" fill="#9747FF"/>
<path d="M239.795 63.1721C240.773 63.1721 241.558 62.3852 241.558 61.4051C241.558 60.4249 240.773 59.638 239.795 59.638C238.817 59.638 238.032 60.4249 238.032 61.4051C238.032 62.3852 238.817 63.1721 239.795 63.1721Z" fill="#9747FF"/>
<path d="M259.631 63.1721C260.609 63.1721 261.394 62.3852 261.394 61.4051C261.394 60.4249 260.609 59.638 259.631 59.638C258.653 59.638 257.868 60.4249 257.868 61.4051C257.868 62.3852 258.653 63.1721 259.631 63.1721Z" fill="#9747FF"/>
<path d="M279.467 63.1721C280.445 63.1721 281.23 62.3852 281.23 61.4051C281.23 60.4249 280.445 59.638 279.467 59.638C278.489 59.638 277.704 60.4249 277.704 61.4051C277.704 62.3852 278.489 63.1721 279.467 63.1721Z" fill="#9747FF"/>
<path d="M299.303 63.1721C300.281 63.1721 301.066 62.3852 301.066 61.4051C301.066 60.4249 300.281 59.638 299.303 59.638C298.325 59.638 297.54 60.4249 297.54 61.4051C297.54 62.3852 298.325 63.1721 299.303 63.1721Z" fill="#9747FF"/>
<path d="M319.139 63.1721C320.117 63.1721 320.902 62.3852 320.902 61.4051C320.902 60.4249 320.117 59.638 319.139 59.638C318.161 59.638 317.376 60.4249 317.376 61.4051C317.376 62.3852 318.161 63.1721 319.139 63.1721Z" fill="#9747FF"/>
<path d="M338.975 63.1721C339.953 63.1721 340.738 62.3852 340.738 61.4051C340.738 60.4249 339.953 59.638 338.975 59.638C337.997 59.638 337.212 60.4249 337.212 61.4051C337.212 62.3852 337.997 63.1721 338.975 63.1721Z" fill="#9747FF"/>
<path d="M358.811 63.1721C359.789 63.1721 360.574 62.3852 360.574 61.4051C360.574 60.4249 359.789 59.638 358.811 59.638C357.833 59.638 357.048 60.4249 357.048 61.4051C357.048 62.3852 357.833 63.1721 358.811 63.1721Z" fill="#9747FF"/>
<path d="M378.647 63.1721C379.625 63.1721 380.41 62.3852 380.41 61.4051C380.41 60.4249 379.625 59.638 378.647 59.638C377.669 59.638 376.884 60.4249 376.884 61.4051C376.884 62.3852 377.669 63.1721 378.647 63.1721Z" fill="#9747FF"/>
<path d="M398.483 63.1721C399.461 63.1721 400.246 62.3852 400.246 61.4051C400.246 60.4249 399.461 59.638 398.483 59.638C397.505 59.638 396.72 60.4249 396.72 61.4051C396.72 62.3852 397.505 63.1721 398.483 63.1721Z" fill="#9747FF"/>
<path d="M418.319 63.1721C419.297 63.1721 420.082 62.3852 420.082 61.4051C420.082 60.4249 419.297 59.638 418.319 59.638C417.341 59.638 416.556 60.4249 416.556 61.4051C416.556 62.3852 417.341 63.1721 418.319 63.1721Z" fill="#9747FF"/>
<path d="M11.6812 83.0514C12.6592 83.0514 13.4444 82.2646 13.4444 81.2844C13.4444 80.3042 12.6592 79.5173 11.6812 79.5173C10.7031 79.5173 9.91797 80.3042 9.91797 81.2844C9.91797 82.2646 10.7031 83.0514 11.6812 83.0514Z" fill="#9747FF"/>
<path d="M31.5172 83.0514C32.4952 83.0514 33.2804 82.2646 33.2804 81.2844C33.2804 80.3042 32.4952 79.5173 31.5172 79.5173C30.5391 79.5173 29.754 80.3042 29.754 81.2844C29.754 82.2646 30.5391 83.0514 31.5172 83.0514Z" fill="#9747FF"/>
<path d="M51.3532 83.0514C52.3312 83.0514 53.1164 82.2646 53.1164 81.2844C53.1164 80.3042 52.3312 79.5173 51.3532 79.5173C50.3751 79.5173 49.59 80.3042 49.59 81.2844C49.59 82.2646 50.3751 83.0514 51.3532 83.0514Z" fill="#9747FF"/>
<path d="M71.1892 83.0514C72.1672 83.0514 72.9524 82.2646 72.9524 81.2844C72.9524 80.3042 72.1672 79.5173 71.1892 79.5173C70.2111 79.5173 69.426 80.3042 69.426 81.2844C69.426 82.2646 70.2111 83.0514 71.1892 83.0514Z" fill="#9747FF"/>
<path d="M91.0251 83.0514C92.0031 83.0514 92.7883 82.2646 92.7883 81.2844C92.7883 80.3042 92.0031 79.5173 91.0251 79.5173C90.0471 79.5173 89.2619 80.3042 89.2619 81.2844C89.2619 82.2646 90.0471 83.0514 91.0251 83.0514Z" fill="#9747FF"/>
<path d="M110.861 83.0514C111.839 83.0514 112.624 82.2646 112.624 81.2844C112.624 80.3042 111.839 79.5173 110.861 79.5173C109.883 79.5173 109.098 80.3042 109.098 81.2844C109.098 82.2646 109.883 83.0514 110.861 83.0514Z" fill="#9747FF"/>
<path d="M130.697 83.0514C131.675 83.0514 132.46 82.2646 132.46 81.2844C132.46 80.3042 131.675 79.5173 130.697 79.5173C129.719 79.5173 128.934 80.3042 128.934 81.2844C128.934 82.2646 129.719 83.0514 130.697 83.0514Z" fill="#9747FF"/>
<path d="M150.533 83.0514C151.511 83.0514 152.296 82.2646 152.296 81.2844C152.296 80.3042 151.511 79.5173 150.533 79.5173C149.555 79.5173 148.77 80.3042 148.77 81.2844C148.77 82.2646 149.555 83.0514 150.533 83.0514Z" fill="#9747FF"/>
<path d="M170.369 83.0514C171.347 83.0514 172.132 82.2646 172.132 81.2844C172.132 80.3042 171.347 79.5173 170.369 79.5173C169.391 79.5173 168.606 80.3042 168.606 81.2844C168.606 82.2646 169.391 83.0514 170.369 83.0514Z" fill="#9747FF"/>
<path d="M190.205 83.0514C191.183 83.0514 191.968 82.2646 191.968 81.2844C191.968 80.3042 191.183 79.5173 190.205 79.5173C189.227 79.5173 188.442 80.3042 188.442 81.2844C188.442 82.2646 189.227 83.0514 190.205 83.0514Z" fill="#9747FF"/>
<path d="M210.041 83.0514C211.019 83.0514 211.804 82.2646 211.804 81.2844C211.804 80.3042 211.019 79.5173 210.041 79.5173C209.063 79.5173 208.278 80.3042 208.278 81.2844C208.278 82.2646 209.063 83.0514 210.041 83.0514Z" fill="#9747FF"/>
<path d="M229.877 83.0514C230.855 83.0514 231.64 82.2646 231.64 81.2844C231.64 80.3042 230.855 79.5173 229.877 79.5173C228.899 79.5173 228.114 80.3042 228.114 81.2844C228.114 82.2646 228.899 83.0514 229.877 83.0514Z" fill="#9747FF"/>
<path d="M249.713 83.0514C250.691 83.0514 251.476 82.2646 251.476 81.2844C251.476 80.3042 250.691 79.5173 249.713 79.5173C248.735 79.5173 247.95 80.3042 247.95 81.2844C247.95 82.2646 248.735 83.0514 249.713 83.0514Z" fill="#9747FF"/>
<path d="M269.549 83.0514C270.527 83.0514 271.312 82.2646 271.312 81.2844C271.312 80.3042 270.527 79.5173 269.549 79.5173C268.571 79.5173 267.786 80.3042 267.786 81.2844C267.786 82.2646 268.571 83.0514 269.549 83.0514Z" fill="#9747FF"/>
<path d="M289.385 83.0514C290.363 83.0514 291.148 82.2646 291.148 81.2844C291.148 80.3042 290.363 79.5173 289.385 79.5173C288.407 79.5173 287.622 80.3042 287.622 81.2844C287.622 82.2646 288.407 83.0514 289.385 83.0514Z" fill="#9747FF"/>
<path d="M309.221 83.0514C310.199 83.0514 310.984 82.2646 310.984 81.2844C310.984 80.3042 310.199 79.5173 309.221 79.5173C308.243 79.5173 307.458 80.3042 307.458 81.2844C307.458 82.2646 308.243 83.0514 309.221 83.0514Z" fill="#9747FF"/>
<path d="M329.057 83.0514C330.035 83.0514 330.82 82.2646 330.82 81.2844C330.82 80.3042 330.035 79.5173 329.057 79.5173C328.079 79.5173 327.294 80.3042 327.294 81.2844C327.294 82.2646 328.079 83.0514 329.057 83.0514Z" fill="#9747FF"/>
<path d="M348.893 83.0514C349.871 83.0514 350.656 82.2646 350.656 81.2844C350.656 80.3042 349.871 79.5173 348.893 79.5173C347.915 79.5173 347.13 80.3042 347.13 81.2844C347.13 82.2646 347.915 83.0514 348.893 83.0514Z" fill="#9747FF"/>
<path d="M368.729 83.0514C369.707 83.0514 370.492 82.2646 370.492 81.2844C370.492 80.3042 369.707 79.5173 368.729 79.5173C367.751 79.5173 366.966 80.3042 366.966 81.2844C366.966 82.2646 367.751 83.0514 368.729 83.0514Z" fill="#9747FF"/>
<path d="M388.565 83.0514C389.543 83.0514 390.328 82.2646 390.328 81.2844C390.328 80.3042 389.543 79.5173 388.565 79.5173C387.587 79.5173 386.802 80.3042 386.802 81.2844C386.802 82.2646 387.587 83.0514 388.565 83.0514Z" fill="#9747FF"/>
<path d="M408.401 83.0514C409.379 83.0514 410.164 82.2646 410.164 81.2844C410.164 80.3042 409.379 79.5173 408.401 79.5173C407.423 79.5173 406.638 80.3042 406.638 81.2844C406.638 82.2646 407.423 83.0514 408.401 83.0514Z" fill="#9747FF"/>
<path d="M428.237 83.0514C429.215 83.0514 430 82.2646 430 81.2844C430 80.3042 429.215 79.5173 428.237 79.5173C427.259 79.5173 426.474 80.3042 426.474 81.2844C426.474 82.2646 427.259 83.0514 428.237 83.0514Z" fill="#9747FF"/>
<path d="M1.7632 102.931C2.74122 102.931 3.5264 102.144 3.5264 101.164C3.5264 100.184 2.74122 99.3967 1.7632 99.3967C0.785174 99.3967 0 100.184 0 101.164C0 102.144 0.785174 102.931 1.7632 102.931Z" fill="#9747FF"/>
<path d="M21.5992 102.931C22.573 102.931 23.3624 102.14 23.3624 101.164C23.3624 100.188 22.573 99.3967 21.5992 99.3967C20.6254 99.3967 19.836 100.188 19.836 101.164C19.836 102.14 20.6254 102.931 21.5992 102.931Z" fill="#9747FF"/>
<path d="M41.4351 102.931C42.4132 102.931 43.1983 102.144 43.1983 101.164C43.1983 100.184 42.4132 99.3967 41.4351 99.3967C40.4571 99.3967 39.6719 100.184 39.6719 101.164C39.6719 102.144 40.4571 102.931 41.4351 102.931Z" fill="#9747FF"/>
<path d="M61.2711 102.931C62.2492 102.931 63.0343 102.144 63.0343 101.164C63.0343 100.184 62.2492 99.3967 61.2711 99.3967C60.2931 99.3967 59.5079 100.184 59.5079 101.164C59.5079 102.144 60.2931 102.931 61.2711 102.931Z" fill="#9747FF"/>
<path d="M81.1071 102.931C82.0852 102.931 82.8703 102.144 82.8703 101.164C82.8703 100.184 82.0852 99.3967 81.1071 99.3967C80.1291 99.3967 79.3439 100.184 79.3439 101.164C79.3439 102.144 80.1291 102.931 81.1071 102.931Z" fill="#9747FF"/>
<path d="M100.943 102.931C101.921 102.931 102.706 102.144 102.706 101.164C102.706 100.184 101.921 99.3967 100.943 99.3967C99.9651 99.3967 99.1799 100.184 99.1799 101.164C99.1799 102.144 99.9651 102.931 100.943 102.931Z" fill="#9747FF"/>
<path d="M120.779 102.931C121.753 102.931 122.542 102.14 122.542 101.164C122.542 100.188 121.753 99.3967 120.779 99.3967C119.805 99.3967 119.016 100.188 119.016 101.164C119.016 102.14 119.805 102.931 120.779 102.931Z" fill="#9747FF"/>
<path d="M140.615 102.931C141.593 102.931 142.378 102.144 142.378 101.164C142.378 100.184 141.593 99.3967 140.615 99.3967C139.637 99.3967 138.852 100.184 138.852 101.164C138.852 102.144 139.637 102.931 140.615 102.931Z" fill="#9747FF"/>
<path d="M160.451 102.931C161.429 102.931 162.214 102.144 162.214 101.164C162.214 100.184 161.429 99.3967 160.451 99.3967C159.473 99.3967 158.688 100.184 158.688 101.164C158.688 102.144 159.473 102.931 160.451 102.931Z" fill="#9747FF"/>
<path d="M180.287 102.931C181.265 102.931 182.05 102.144 182.05 101.164C182.05 100.184 181.265 99.3967 180.287 99.3967C179.309 99.3967 178.524 100.184 178.524 101.164C178.524 102.144 179.309 102.931 180.287 102.931Z" fill="#9747FF"/>
<path d="M200.123 102.931C201.101 102.931 201.886 102.144 201.886 101.164C201.886 100.184 201.101 99.3967 200.123 99.3967C199.145 99.3967 198.36 100.184 198.36 101.164C198.36 102.144 199.145 102.931 200.123 102.931Z" fill="#9747FF"/>
<path d="M219.959 102.931C220.933 102.931 221.722 102.14 221.722 101.164C221.722 100.188 220.933 99.3967 219.959 99.3967C218.985 99.3967 218.196 100.188 218.196 101.164C218.196 102.14 218.985 102.931 219.959 102.931Z" fill="#9747FF"/>
<path d="M239.795 102.931C240.773 102.931 241.558 102.144 241.558 101.164C241.558 100.184 240.773 99.3967 239.795 99.3967C238.817 99.3967 238.032 100.184 238.032 101.164C238.032 102.144 238.817 102.931 239.795 102.931Z" fill="#9747FF"/>
<path d="M259.631 102.931C260.609 102.931 261.394 102.144 261.394 101.164C261.394 100.184 260.609 99.3967 259.631 99.3967C258.653 99.3967 257.868 100.184 257.868 101.164C257.868 102.144 258.653 102.931 259.631 102.931Z" fill="#9747FF"/>
<path d="M279.467 102.931C280.445 102.931 281.23 102.144 281.23 101.164C281.23 100.184 280.445 99.3967 279.467 99.3967C278.489 99.3967 277.704 100.184 277.704 101.164C277.704 102.144 278.489 102.931 279.467 102.931Z" fill="#9747FF"/>
<path d="M299.303 102.931C300.281 102.931 301.066 102.144 301.066 101.164C301.066 100.184 300.281 99.3967 299.303 99.3967C298.325 99.3967 297.54 100.184 297.54 101.164C297.54 102.144 298.325 102.931 299.303 102.931Z" fill="#9747FF"/>
<path d="M319.139 102.931C320.113 102.931 320.902 102.14 320.902 101.164C320.902 100.188 320.113 99.3967 319.139 99.3967C318.165 99.3967 317.376 100.188 317.376 101.164C317.376 102.14 318.165 102.931 319.139 102.931Z" fill="#9747FF"/>
<path d="M338.975 102.931C339.953 102.931 340.738 102.144 340.738 101.164C340.738 100.184 339.953 99.3967 338.975 99.3967C337.997 99.3967 337.212 100.184 337.212 101.164C337.212 102.144 337.997 102.931 338.975 102.931Z" fill="#9747FF"/>
<path d="M358.811 102.931C359.789 102.931 360.574 102.144 360.574 101.164C360.574 100.184 359.789 99.3967 358.811 99.3967C357.833 99.3967 357.048 100.184 357.048 101.164C357.048 102.144 357.833 102.931 358.811 102.931Z" fill="#9747FF"/>
<path d="M378.647 102.931C379.625 102.931 380.41 102.144 380.41 101.164C380.41 100.184 379.625 99.3967 378.647 99.3967C377.669 99.3967 376.884 100.184 376.884 101.164C376.884 102.144 377.669 102.931 378.647 102.931Z" fill="#9747FF"/>
<path d="M398.483 102.931C399.461 102.931 400.246 102.144 400.246 101.164C400.246 100.184 399.461 99.3967 398.483 99.3967C397.505 99.3967 396.72 100.184 396.72 101.164C396.72 102.144 397.505 102.931 398.483 102.931Z" fill="#9747FF"/>
<path d="M418.319 102.931C419.293 102.931 420.082 102.14 420.082 101.164C420.082 100.188 419.293 99.3967 418.319 99.3967C417.345 99.3967 416.556 100.188 416.556 101.164C416.556 102.14 417.345 102.931 418.319 102.931Z" fill="#9747FF"/>
<path d="M11.6812 122.81C12.6592 122.81 13.4444 122.023 13.4444 121.043C13.4444 120.063 12.6592 119.276 11.6812 119.276C10.7031 119.276 9.91797 120.063 9.91797 121.043C9.91797 122.023 10.7031 122.81 11.6812 122.81Z" fill="#9747FF"/>
<path d="M31.5172 122.81C32.4952 122.81 33.2804 122.023 33.2804 121.043C33.2804 120.063 32.4952 119.276 31.5172 119.276C30.5391 119.276 29.754 120.063 29.754 121.043C29.754 122.023 30.5391 122.81 31.5172 122.81Z" fill="#9747FF"/>
<path d="M51.3532 122.81C52.3312 122.81 53.1164 122.023 53.1164 121.043C53.1164 120.063 52.3312 119.276 51.3532 119.276C50.3751 119.276 49.59 120.063 49.59 121.043C49.59 122.023 50.3751 122.81 51.3532 122.81Z" fill="#9747FF"/>
<path d="M71.1892 122.81C72.1629 122.81 72.9524 122.019 72.9524 121.043C72.9524 120.067 72.1629 119.276 71.1892 119.276C70.2154 119.276 69.426 120.067 69.426 121.043C69.426 122.019 70.2154 122.81 71.1892 122.81Z" fill="#9747FF"/>
<path d="M91.0251 122.81C92.0031 122.81 92.7883 122.023 92.7883 121.043C92.7883 120.063 92.0031 119.276 91.0251 119.276C90.0471 119.276 89.2619 120.063 89.2619 121.043C89.2619 122.023 90.0471 122.81 91.0251 122.81Z" fill="#9747FF"/>
<path d="M110.861 122.81C111.839 122.81 112.624 122.023 112.624 121.043C112.624 120.063 111.839 119.276 110.861 119.276C109.883 119.276 109.098 120.063 109.098 121.043C109.098 122.023 109.883 122.81 110.861 122.81Z" fill="#9747FF"/>
<path d="M130.697 122.81C131.675 122.81 132.46 122.023 132.46 121.043C132.46 120.063 131.675 119.276 130.697 119.276C129.719 119.276 128.934 120.063 128.934 121.043C128.934 122.023 129.719 122.81 130.697 122.81Z" fill="#9747FF"/>
<path d="M150.533 122.81C151.511 122.81 152.296 122.023 152.296 121.043C152.296 120.063 151.511 119.276 150.533 119.276C149.555 119.276 148.77 120.063 148.77 121.043C148.77 122.023 149.555 122.81 150.533 122.81Z" fill="#9747FF"/>
<path d="M170.369 122.81C171.343 122.81 172.132 122.019 172.132 121.043C172.132 120.067 171.343 119.276 170.369 119.276C169.395 119.276 168.606 120.067 168.606 121.043C168.606 122.019 169.395 122.81 170.369 122.81Z" fill="#9747FF"/>
<path d="M190.205 122.81C191.183 122.81 191.968 122.023 191.968 121.043C191.968 120.063 191.183 119.276 190.205 119.276C189.227 119.276 188.442 120.063 188.442 121.043C188.442 122.023 189.227 122.81 190.205 122.81Z" fill="#9747FF"/>
<path d="M210.041 122.81C211.019 122.81 211.804 122.023 211.804 121.043C211.804 120.063 211.019 119.276 210.041 119.276C209.063 119.276 208.278 120.063 208.278 121.043C208.278 122.023 209.063 122.81 210.041 122.81Z" fill="#9747FF"/>
<path d="M229.877 122.81C230.855 122.81 231.64 122.023 231.64 121.043C231.64 120.063 230.855 119.276 229.877 119.276C228.899 119.276 228.114 120.063 228.114 121.043C228.114 122.023 228.899 122.81 229.877 122.81Z" fill="#9747FF"/>
<path d="M249.713 122.81C250.691 122.81 251.476 122.023 251.476 121.043C251.476 120.063 250.691 119.276 249.713 119.276C248.735 119.276 247.95 120.063 247.95 121.043C247.95 122.023 248.735 122.81 249.713 122.81Z" fill="#9747FF"/>
<path d="M269.549 122.81C270.523 122.81 271.312 122.019 271.312 121.043C271.312 120.067 270.523 119.276 269.549 119.276C268.575 119.276 267.786 120.067 267.786 121.043C267.786 122.019 268.575 122.81 269.549 122.81Z" fill="#9747FF"/>
<path d="M289.385 122.81C290.363 122.81 291.148 122.023 291.148 121.043C291.148 120.063 290.363 119.276 289.385 119.276C288.407 119.276 287.622 120.063 287.622 121.043C287.622 122.023 288.407 122.81 289.385 122.81Z" fill="#9747FF"/>
<path d="M309.221 122.81C310.199 122.81 310.984 122.023 310.984 121.043C310.984 120.063 310.199 119.276 309.221 119.276C308.243 119.276 307.458 120.063 307.458 121.043C307.458 122.023 308.243 122.81 309.221 122.81Z" fill="#9747FF"/>
<path d="M329.057 122.81C330.035 122.81 330.82 122.023 330.82 121.043C330.82 120.063 330.035 119.276 329.057 119.276C328.079 119.276 327.294 120.063 327.294 121.043C327.294 122.023 328.079 122.81 329.057 122.81Z" fill="#9747FF"/>
<path d="M348.893 122.81C349.871 122.81 350.656 122.023 350.656 121.043C350.656 120.063 349.871 119.276 348.893 119.276C347.915 119.276 347.13 120.063 347.13 121.043C347.13 122.023 347.915 122.81 348.893 122.81Z" fill="#9747FF"/>
<path d="M368.729 122.81C369.703 122.81 370.492 122.019 370.492 121.043C370.492 120.067 369.703 119.276 368.729 119.276C367.755 119.276 366.966 120.067 366.966 121.043C366.966 122.019 367.755 122.81 368.729 122.81Z" fill="#9747FF"/>
<path d="M388.565 122.81C389.543 122.81 390.328 122.023 390.328 121.043C390.328 120.063 389.543 119.276 388.565 119.276C387.587 119.276 386.802 120.063 386.802 121.043C386.802 122.023 387.587 122.81 388.565 122.81Z" fill="#9747FF"/>
<path d="M408.401 122.81C409.379 122.81 410.164 122.023 410.164 121.043C410.164 120.063 409.379 119.276 408.401 119.276C407.423 119.276 406.638 120.063 406.638 121.043C406.638 122.023 407.423 122.81 408.401 122.81Z" fill="#9747FF"/>
<path d="M428.237 122.81C429.215 122.81 430 122.023 430 121.043C430 120.063 429.215 119.276 428.237 119.276C427.259 119.276 426.474 120.063 426.474 121.043C426.474 122.023 427.259 122.81 428.237 122.81Z" fill="#9747FF"/>
<path d="M1.7632 142.689C2.74122 142.689 3.5264 141.902 3.5264 140.922C3.5264 139.942 2.74122 139.155 1.7632 139.155C0.785174 139.155 0 139.942 0 140.922C0 141.902 0.785174 142.689 1.7632 142.689Z" fill="#9747FF"/>
<path d="M21.5992 142.689C22.5772 142.689 23.3624 141.902 23.3624 140.922C23.3624 139.942 22.5772 139.155 21.5992 139.155C20.6212 139.155 19.836 139.942 19.836 140.922C19.836 141.902 20.6212 142.689 21.5992 142.689Z" fill="#9747FF"/>
<path d="M41.4351 142.689C42.4132 142.689 43.1983 141.902 43.1983 140.922C43.1983 139.942 42.4132 139.155 41.4351 139.155C40.4571 139.155 39.6719 139.942 39.6719 140.922C39.6719 141.902 40.4571 142.689 41.4351 142.689Z" fill="#9747FF"/>
<path d="M61.2711 142.689C62.2492 142.689 63.0343 141.902 63.0343 140.922C63.0343 139.942 62.2492 139.155 61.2711 139.155C60.2931 139.155 59.5079 139.942 59.5079 140.922C59.5079 141.902 60.2931 142.689 61.2711 142.689Z" fill="#9747FF"/>
<path d="M81.1071 142.689C82.0852 142.689 82.8703 141.902 82.8703 140.922C82.8703 139.942 82.0852 139.155 81.1071 139.155C80.1291 139.155 79.3439 139.942 79.3439 140.922C79.3439 141.902 80.1291 142.689 81.1071 142.689Z" fill="#9747FF"/>
<path d="M100.943 142.689C101.921 142.689 102.706 141.902 102.706 140.922C102.706 139.942 101.921 139.155 100.943 139.155C99.9651 139.155 99.1799 139.942 99.1799 140.922C99.1799 141.902 99.9651 142.689 100.943 142.689Z" fill="#9747FF"/>
<path d="M120.779 142.689C121.757 142.689 122.542 141.902 122.542 140.922C122.542 139.942 121.757 139.155 120.779 139.155C119.801 139.155 119.016 139.942 119.016 140.922C119.016 141.902 119.801 142.689 120.779 142.689Z" fill="#9747FF"/>
<path d="M140.615 142.689C141.593 142.689 142.378 141.902 142.378 140.922C142.378 139.942 141.593 139.155 140.615 139.155C139.637 139.155 138.852 139.942 138.852 140.922C138.852 141.902 139.637 142.689 140.615 142.689Z" fill="#9747FF"/>
<path d="M160.451 142.689C161.429 142.689 162.214 141.902 162.214 140.922C162.214 139.942 161.429 139.155 160.451 139.155C159.473 139.155 158.688 139.942 158.688 140.922C158.688 141.902 159.473 142.689 160.451 142.689Z" fill="#9747FF"/>
<path d="M180.287 142.689C181.265 142.689 182.05 141.902 182.05 140.922C182.05 139.942 181.265 139.155 180.287 139.155C179.309 139.155 178.524 139.942 178.524 140.922C178.524 141.902 179.309 142.689 180.287 142.689Z" fill="#9747FF"/>
<path d="M200.123 142.689C201.101 142.689 201.886 141.902 201.886 140.922C201.886 139.942 201.101 139.155 200.123 139.155C199.145 139.155 198.36 139.942 198.36 140.922C198.36 141.902 199.145 142.689 200.123 142.689Z" fill="#9747FF"/>
<path d="M219.959 142.689C220.937 142.689 221.722 141.902 221.722 140.922C221.722 139.942 220.937 139.155 219.959 139.155C218.981 139.155 218.196 139.942 218.196 140.922C218.196 141.902 218.981 142.689 219.959 142.689Z" fill="#9747FF"/>
<path d="M239.795 142.689C240.773 142.689 241.558 141.902 241.558 140.922C241.558 139.942 240.773 139.155 239.795 139.155C238.817 139.155 238.032 139.942 238.032 140.922C238.032 141.902 238.817 142.689 239.795 142.689Z" fill="#9747FF"/>
<path d="M259.631 142.689C260.609 142.689 261.394 141.902 261.394 140.922C261.394 139.942 260.609 139.155 259.631 139.155C258.653 139.155 257.868 139.942 257.868 140.922C257.868 141.902 258.653 142.689 259.631 142.689Z" fill="#9747FF"/>
<path d="M279.467 142.689C280.445 142.689 281.23 141.902 281.23 140.922C281.23 139.942 280.445 139.155 279.467 139.155C278.489 139.155 277.704 139.942 277.704 140.922C277.704 141.902 278.489 142.689 279.467 142.689Z" fill="#9747FF"/>
<path d="M299.303 142.689C300.281 142.689 301.066 141.902 301.066 140.922C301.066 139.942 300.281 139.155 299.303 139.155C298.325 139.155 297.54 139.942 297.54 140.922C297.54 141.902 298.325 142.689 299.303 142.689Z" fill="#9747FF"/>
<path d="M319.139 142.689C320.117 142.689 320.902 141.902 320.902 140.922C320.902 139.942 320.117 139.155 319.139 139.155C318.161 139.155 317.376 139.942 317.376 140.922C317.376 141.902 318.161 142.689 319.139 142.689Z" fill="#9747FF"/>
<path d="M338.975 142.689C339.953 142.689 340.738 141.902 340.738 140.922C340.738 139.942 339.953 139.155 338.975 139.155C337.997 139.155 337.212 139.942 337.212 140.922C337.212 141.902 337.997 142.689 338.975 142.689Z" fill="#9747FF"/>
<path d="M358.811 142.689C359.789 142.689 360.574 141.902 360.574 140.922C360.574 139.942 359.789 139.155 358.811 139.155C357.833 139.155 357.048 139.942 357.048 140.922C357.048 141.902 357.833 142.689 358.811 142.689Z" fill="#9747FF"/>
<path d="M378.647 142.689C379.625 142.689 380.41 141.902 380.41 140.922C380.41 139.942 379.625 139.155 378.647 139.155C377.669 139.155 376.884 139.942 376.884 140.922C376.884 141.902 377.669 142.689 378.647 142.689Z" fill="#9747FF"/>
<path d="M398.483 142.689C399.461 142.689 400.246 141.902 400.246 140.922C400.246 139.942 399.461 139.155 398.483 139.155C397.505 139.155 396.72 139.942 396.72 140.922C396.72 141.902 397.505 142.689 398.483 142.689Z" fill="#9747FF"/>
<path d="M418.319 142.689C419.297 142.689 420.082 141.902 420.082 140.922C420.082 139.942 419.297 139.155 418.319 139.155C417.341 139.155 416.556 139.942 416.556 140.922C416.556 141.902 417.341 142.689 418.319 142.689Z" fill="#9747FF"/>
<path d="M11.6812 162.569C12.6592 162.569 13.4444 161.782 13.4444 160.802C13.4444 159.822 12.6592 159.035 11.6812 159.035C10.7031 159.035 9.91797 159.822 9.91797 160.802C9.91797 161.782 10.7031 162.569 11.6812 162.569Z" fill="#9747FF"/>
<path d="M31.5172 162.569C32.4952 162.569 33.2804 161.782 33.2804 160.802C33.2804 159.822 32.4952 159.035 31.5172 159.035C30.5391 159.035 29.754 159.822 29.754 160.802C29.754 161.782 30.5391 162.569 31.5172 162.569Z" fill="#9747FF"/>
<path d="M51.3532 162.569C52.3312 162.569 53.1164 161.782 53.1164 160.802C53.1164 159.822 52.3312 159.035 51.3532 159.035C50.3751 159.035 49.59 159.822 49.59 160.802C49.59 161.782 50.3751 162.569 51.3532 162.569Z" fill="#9747FF"/>
<path d="M71.1892 162.569C72.1672 162.569 72.9524 161.782 72.9524 160.802C72.9524 159.822 72.1672 159.035 71.1892 159.035C70.2111 159.035 69.426 159.822 69.426 160.802C69.426 161.782 70.2111 162.569 71.1892 162.569Z" fill="#9747FF"/>
<path d="M91.0251 162.569C92.0031 162.569 92.7883 161.782 92.7883 160.802C92.7883 159.822 92.0031 159.035 91.0251 159.035C90.0471 159.035 89.2619 159.822 89.2619 160.802C89.2619 161.782 90.0471 162.569 91.0251 162.569Z" fill="#9747FF"/>
<path d="M110.861 162.569C111.839 162.569 112.624 161.782 112.624 160.802C112.624 159.822 111.839 159.035 110.861 159.035C109.883 159.035 109.098 159.822 109.098 160.802C109.098 161.782 109.883 162.569 110.861 162.569Z" fill="#9747FF"/>
<path d="M130.697 162.569C131.675 162.569 132.46 161.782 132.46 160.802C132.46 159.822 131.675 159.035 130.697 159.035C129.719 159.035 128.934 159.822 128.934 160.802C128.934 161.782 129.719 162.569 130.697 162.569Z" fill="#9747FF"/>
<path d="M150.533 162.569C151.511 162.569 152.296 161.782 152.296 160.802C152.296 159.822 151.511 159.035 150.533 159.035C149.555 159.035 148.77 159.822 148.77 160.802C148.77 161.782 149.555 162.569 150.533 162.569Z" fill="#9747FF"/>
<path d="M170.369 162.569C171.347 162.569 172.132 161.782 172.132 160.802C172.132 159.822 171.347 159.035 170.369 159.035C169.391 159.035 168.606 159.822 168.606 160.802C168.606 161.782 169.391 162.569 170.369 162.569Z" fill="#9747FF"/>
<path d="M190.205 162.569C191.183 162.569 191.968 161.782 191.968 160.802C191.968 159.822 191.183 159.035 190.205 159.035C189.227 159.035 188.442 159.822 188.442 160.802C188.442 161.782 189.227 162.569 190.205 162.569Z" fill="#9747FF"/>
<path d="M210.041 162.569C211.019 162.569 211.804 161.782 211.804 160.802C211.804 159.822 211.019 159.035 210.041 159.035C209.063 159.035 208.278 159.822 208.278 160.802C208.278 161.782 209.063 162.569 210.041 162.569Z" fill="#9747FF"/>
<path d="M229.877 162.569C230.855 162.569 231.64 161.782 231.64 160.802C231.64 159.822 230.855 159.035 229.877 159.035C228.899 159.035 228.114 159.822 228.114 160.802C228.114 161.782 228.899 162.569 229.877 162.569Z" fill="#9747FF"/>
<path d="M249.713 162.569C250.691 162.569 251.476 161.782 251.476 160.802C251.476 159.822 250.691 159.035 249.713 159.035C248.735 159.035 247.95 159.822 247.95 160.802C247.95 161.782 248.735 162.569 249.713 162.569Z" fill="#9747FF"/>
<path d="M269.549 162.569C270.527 162.569 271.312 161.782 271.312 160.802C271.312 159.822 270.527 159.035 269.549 159.035C268.571 159.035 267.786 159.822 267.786 160.802C267.786 161.782 268.571 162.569 269.549 162.569Z" fill="#9747FF"/>
<path d="M289.385 162.569C290.363 162.569 291.148 161.782 291.148 160.802C291.148 159.822 290.363 159.035 289.385 159.035C288.407 159.035 287.622 159.822 287.622 160.802C287.622 161.782 288.407 162.569 289.385 162.569Z" fill="#9747FF"/>
<path d="M309.221 162.569C310.199 162.569 310.984 161.782 310.984 160.802C310.984 159.822 310.199 159.035 309.221 159.035C308.243 159.035 307.458 159.822 307.458 160.802C307.458 161.782 308.243 162.569 309.221 162.569Z" fill="#9747FF"/>
<path d="M329.057 162.569C330.035 162.569 330.82 161.782 330.82 160.802C330.82 159.822 330.035 159.035 329.057 159.035C328.079 159.035 327.294 159.822 327.294 160.802C327.294 161.782 328.079 162.569 329.057 162.569Z" fill="#9747FF"/>
<path d="M348.893 162.569C349.871 162.569 350.656 161.782 350.656 160.802C350.656 159.822 349.871 159.035 348.893 159.035C347.915 159.035 347.13 159.822 347.13 160.802C347.13 161.782 347.915 162.569 348.893 162.569Z" fill="#9747FF"/>
<path d="M368.729 162.569C369.707 162.569 370.492 161.782 370.492 160.802C370.492 159.822 369.707 159.035 368.729 159.035C367.751 159.035 366.966 159.822 366.966 160.802C366.966 161.782 367.751 162.569 368.729 162.569Z" fill="#9747FF"/>
<path d="M388.565 162.569C389.543 162.569 390.328 161.782 390.328 160.802C390.328 159.822 389.543 159.035 388.565 159.035C387.587 159.035 386.802 159.822 386.802 160.802C386.802 161.782 387.587 162.569 388.565 162.569Z" fill="#9747FF"/>
<path d="M408.401 162.569C409.379 162.569 410.164 161.782 410.164 160.802C410.164 159.822 409.379 159.035 408.401 159.035C407.423 159.035 406.638 159.822 406.638 160.802C406.638 161.782 407.423 162.569 408.401 162.569Z" fill="#9747FF"/>
<path d="M428.237 162.569C429.215 162.569 430 161.782 430 160.802C430 159.822 429.215 159.035 428.237 159.035C427.259 159.035 426.474 159.822 426.474 160.802C426.474 161.782 427.259 162.569 428.237 162.569Z" fill="#9747FF"/>
<path d="M1.7632 182.448C2.74122 182.448 3.5264 181.661 3.5264 180.681C3.5264 179.701 2.74122 178.914 1.7632 178.914C0.785174 178.914 0 179.701 0 180.681C0 181.661 0.785174 182.448 1.7632 182.448Z" fill="#9747FF"/>
<path d="M21.5992 182.448C22.5772 182.448 23.3624 181.661 23.3624 180.681C23.3624 179.701 22.5772 178.914 21.5992 178.914C20.6212 178.914 19.836 179.701 19.836 180.681C19.836 181.661 20.6212 182.448 21.5992 182.448Z" fill="#9747FF"/>
<path d="M41.4351 182.448C42.4132 182.448 43.1983 181.661 43.1983 180.681C43.1983 179.701 42.4132 178.914 41.4351 178.914C40.4571 178.914 39.6719 179.701 39.6719 180.681C39.6719 181.661 40.4571 182.448 41.4351 182.448Z" fill="#9747FF"/>
<path d="M61.2711 182.448C62.2492 182.448 63.0343 181.661 63.0343 180.681C63.0343 179.701 62.2492 178.914 61.2711 178.914C60.2931 178.914 59.5079 179.701 59.5079 180.681C59.5079 181.661 60.2931 182.448 61.2711 182.448Z" fill="#9747FF"/>
<path d="M81.1071 182.448C82.0852 182.448 82.8703 181.661 82.8703 180.681C82.8703 179.701 82.0852 178.914 81.1071 178.914C80.1291 178.914 79.3439 179.701 79.3439 180.681C79.3439 181.661 80.1291 182.448 81.1071 182.448Z" fill="#9747FF"/>
<path d="M100.943 182.448C101.921 182.448 102.706 181.661 102.706 180.681C102.706 179.701 101.921 178.914 100.943 178.914C99.9651 178.914 99.1799 179.701 99.1799 180.681C99.1799 181.661 99.9651 182.448 100.943 182.448Z" fill="#9747FF"/>
<path d="M120.779 182.448C121.757 182.448 122.542 181.661 122.542 180.681C122.542 179.701 121.757 178.914 120.779 178.914C119.801 178.914 119.016 179.701 119.016 180.681C119.016 181.661 119.801 182.448 120.779 182.448Z" fill="#9747FF"/>
<path d="M140.615 182.448C141.593 182.448 142.378 181.661 142.378 180.681C142.378 179.701 141.593 178.914 140.615 178.914C139.637 178.914 138.852 179.701 138.852 180.681C138.852 181.661 139.637 182.448 140.615 182.448Z" fill="#9747FF"/>
<path d="M160.451 182.448C161.429 182.448 162.214 181.661 162.214 180.681C162.214 179.701 161.429 178.914 160.451 178.914C159.473 178.914 158.688 179.701 158.688 180.681C158.688 181.661 159.473 182.448 160.451 182.448Z" fill="#9747FF"/>
<path d="M180.287 182.448C181.265 182.448 182.05 181.661 182.05 180.681C182.05 179.701 181.265 178.914 180.287 178.914C179.309 178.914 178.524 179.701 178.524 180.681C178.524 181.661 179.309 182.448 180.287 182.448Z" fill="#9747FF"/>
<path d="M200.123 182.448C201.101 182.448 201.886 181.661 201.886 180.681C201.886 179.701 201.101 178.914 200.123 178.914C199.145 178.914 198.36 179.701 198.36 180.681C198.36 181.661 199.145 182.448 200.123 182.448Z" fill="#9747FF"/>
<path d="M219.959 182.448C220.937 182.448 221.722 181.661 221.722 180.681C221.722 179.701 220.937 178.914 219.959 178.914C218.981 178.914 218.196 179.701 218.196 180.681C218.196 181.661 218.981 182.448 219.959 182.448Z" fill="#9747FF"/>
<path d="M239.795 182.448C240.773 182.448 241.558 181.661 241.558 180.681C241.558 179.701 240.773 178.914 239.795 178.914C238.817 178.914 238.032 179.701 238.032 180.681C238.032 181.661 238.817 182.448 239.795 182.448Z" fill="#9747FF"/>
<path d="M259.631 182.448C260.609 182.448 261.394 181.661 261.394 180.681C261.394 179.701 260.609 178.914 259.631 178.914C258.653 178.914 257.868 179.701 257.868 180.681C257.868 181.661 258.653 182.448 259.631 182.448Z" fill="#9747FF"/>
<path d="M279.467 182.448C280.445 182.448 281.23 181.661 281.23 180.681C281.23 179.701 280.445 178.914 279.467 178.914C278.489 178.914 277.704 179.701 277.704 180.681C277.704 181.661 278.489 182.448 279.467 182.448Z" fill="#9747FF"/>
<path d="M299.303 182.448C300.281 182.448 301.066 181.661 301.066 180.681C301.066 179.701 300.281 178.914 299.303 178.914C298.325 178.914 297.54 179.701 297.54 180.681C297.54 181.661 298.325 182.448 299.303 182.448Z" fill="#9747FF"/>
<path d="M319.139 182.448C320.117 182.448 320.902 181.661 320.902 180.681C320.902 179.701 320.117 178.914 319.139 178.914C318.161 178.914 317.376 179.701 317.376 180.681C317.376 181.661 318.161 182.448 319.139 182.448Z" fill="#9747FF"/>
<path d="M338.975 182.448C339.953 182.448 340.738 181.661 340.738 180.681C340.738 179.701 339.953 178.914 338.975 178.914C337.997 178.914 337.212 179.701 337.212 180.681C337.212 181.661 337.997 182.448 338.975 182.448Z" fill="#9747FF"/>
<path d="M358.811 182.448C359.789 182.448 360.574 181.661 360.574 180.681C360.574 179.701 359.789 178.914 358.811 178.914C357.833 178.914 357.048 179.701 357.048 180.681C357.048 181.661 357.833 182.448 358.811 182.448Z" fill="#9747FF"/>
<path d="M378.647 182.448C379.625 182.448 380.41 181.661 380.41 180.681C380.41 179.701 379.625 178.914 378.647 178.914C377.669 178.914 376.884 179.701 376.884 180.681C376.884 181.661 377.669 182.448 378.647 182.448Z" fill="#9747FF"/>
<path d="M398.483 182.448C399.461 182.448 400.246 181.661 400.246 180.681C400.246 179.701 399.461 178.914 398.483 178.914C397.505 178.914 396.72 179.701 396.72 180.681C396.72 181.661 397.505 182.448 398.483 182.448Z" fill="#9747FF"/>
<path d="M418.319 182.448C419.297 182.448 420.082 181.661 420.082 180.681C420.082 179.701 419.297 178.914 418.319 178.914C417.341 178.914 416.556 179.701 416.556 180.681C416.556 181.661 417.341 182.448 418.319 182.448Z" fill="#9747FF"/>
<path d="M11.6812 202.327C12.6592 202.327 13.4444 201.541 13.4444 200.56C13.4444 199.58 12.6592 198.793 11.6812 198.793C10.7031 198.793 9.91797 199.58 9.91797 200.56C9.91797 201.541 10.7031 202.327 11.6812 202.327Z" fill="#9747FF"/>
<path d="M31.5172 202.327C32.4952 202.327 33.2804 201.541 33.2804 200.56C33.2804 199.58 32.4952 198.793 31.5172 198.793C30.5391 198.793 29.754 199.58 29.754 200.56C29.754 201.541 30.5391 202.327 31.5172 202.327Z" fill="#9747FF"/>
<path d="M51.3532 202.327C52.3312 202.327 53.1164 201.541 53.1164 200.56C53.1164 199.58 52.3312 198.793 51.3532 198.793C50.3751 198.793 49.59 199.58 49.59 200.56C49.59 201.541 50.3751 202.327 51.3532 202.327Z" fill="#9747FF"/>
<path d="M71.1892 202.327C72.1629 202.327 72.9524 201.536 72.9524 200.56C72.9524 199.584 72.1629 198.793 71.1892 198.793C70.2154 198.793 69.426 199.584 69.426 200.56C69.426 201.536 70.2154 202.327 71.1892 202.327Z" fill="#9747FF"/>
<path d="M91.0251 202.327C92.0031 202.327 92.7883 201.541 92.7883 200.56C92.7883 199.58 92.0031 198.793 91.0251 198.793C90.0471 198.793 89.2619 199.58 89.2619 200.56C89.2619 201.541 90.0471 202.327 91.0251 202.327Z" fill="#9747FF"/>
<path d="M110.861 202.327C111.839 202.327 112.624 201.541 112.624 200.56C112.624 199.58 111.839 198.793 110.861 198.793C109.883 198.793 109.098 199.58 109.098 200.56C109.098 201.541 109.883 202.327 110.861 202.327Z" fill="#9747FF"/>
<path d="M130.697 202.327C131.675 202.327 132.46 201.541 132.46 200.56C132.46 199.58 131.675 198.793 130.697 198.793C129.719 198.793 128.934 199.58 128.934 200.56C128.934 201.541 129.719 202.327 130.697 202.327Z" fill="#9747FF"/>
<path d="M150.533 202.327C151.511 202.327 152.296 201.541 152.296 200.56C152.296 199.58 151.511 198.793 150.533 198.793C149.555 198.793 148.77 199.58 148.77 200.56C148.77 201.541 149.555 202.327 150.533 202.327Z" fill="#9747FF"/>
<path d="M170.369 202.327C171.343 202.327 172.132 201.536 172.132 200.56C172.132 199.584 171.343 198.793 170.369 198.793C169.395 198.793 168.606 199.584 168.606 200.56C168.606 201.536 169.395 202.327 170.369 202.327Z" fill="#9747FF"/>
<path d="M190.205 202.327C191.183 202.327 191.968 201.541 191.968 200.56C191.968 199.58 191.183 198.793 190.205 198.793C189.227 198.793 188.442 199.58 188.442 200.56C188.442 201.541 189.227 202.327 190.205 202.327Z" fill="#9747FF"/>
<path d="M210.041 202.327C211.019 202.327 211.804 201.541 211.804 200.56C211.804 199.58 211.019 198.793 210.041 198.793C209.063 198.793 208.278 199.58 208.278 200.56C208.278 201.541 209.063 202.327 210.041 202.327Z" fill="#9747FF"/>
<path d="M229.877 202.327C230.855 202.327 231.64 201.541 231.64 200.56C231.64 199.58 230.855 198.793 229.877 198.793C228.899 198.793 228.114 199.58 228.114 200.56C228.114 201.541 228.899 202.327 229.877 202.327Z" fill="#9747FF"/>
<path d="M249.713 202.327C250.691 202.327 251.476 201.541 251.476 200.56C251.476 199.58 250.691 198.793 249.713 198.793C248.735 198.793 247.95 199.58 247.95 200.56C247.95 201.541 248.735 202.327 249.713 202.327Z" fill="#9747FF"/>
<path d="M269.549 202.327C270.523 202.327 271.312 201.536 271.312 200.56C271.312 199.584 270.523 198.793 269.549 198.793C268.575 198.793 267.786 199.584 267.786 200.56C267.786 201.536 268.575 202.327 269.549 202.327Z" fill="#9747FF"/>
<path d="M289.385 202.327C290.363 202.327 291.148 201.541 291.148 200.56C291.148 199.58 290.363 198.793 289.385 198.793C288.407 198.793 287.622 199.58 287.622 200.56C287.622 201.541 288.407 202.327 289.385 202.327Z" fill="#9747FF"/>
<path d="M309.221 202.327C310.199 202.327 310.984 201.541 310.984 200.56C310.984 199.58 310.199 198.793 309.221 198.793C308.243 198.793 307.458 199.58 307.458 200.56C307.458 201.541 308.243 202.327 309.221 202.327Z" fill="#9747FF"/>
<path d="M329.057 202.327C330.035 202.327 330.82 201.541 330.82 200.56C330.82 199.58 330.035 198.793 329.057 198.793C328.079 198.793 327.294 199.58 327.294 200.56C327.294 201.541 328.079 202.327 329.057 202.327Z" fill="#9747FF"/>
<path d="M348.893 202.327C349.871 202.327 350.656 201.541 350.656 200.56C350.656 199.58 349.871 198.793 348.893 198.793C347.915 198.793 347.13 199.58 347.13 200.56C347.13 201.541 347.915 202.327 348.893 202.327Z" fill="#9747FF"/>
<path d="M368.729 202.327C369.703 202.327 370.492 201.536 370.492 200.56C370.492 199.584 369.703 198.793 368.729 198.793C367.755 198.793 366.966 199.584 366.966 200.56C366.966 201.536 367.755 202.327 368.729 202.327Z" fill="#9747FF"/>
<path d="M388.565 202.327C389.543 202.327 390.328 201.541 390.328 200.56C390.328 199.58 389.543 198.793 388.565 198.793C387.587 198.793 386.802 199.58 386.802 200.56C386.802 201.541 387.587 202.327 388.565 202.327Z" fill="#9747FF"/>
<path d="M408.401 202.327C409.379 202.327 410.164 201.541 410.164 200.56C410.164 199.58 409.379 198.793 408.401 198.793C407.423 198.793 406.638 199.58 406.638 200.56C406.638 201.541 407.423 202.327 408.401 202.327Z" fill="#9747FF"/>
<path d="M428.237 202.327C429.215 202.327 430 201.541 430 200.56C430 199.58 429.215 198.793 428.237 198.793C427.259 198.793 426.474 199.58 426.474 200.56C426.474 201.541 427.259 202.327 428.237 202.327Z" fill="#9747FF"/>
<path d="M1.7632 222.207C2.74122 222.207 3.5264 221.42 3.5264 220.44C3.5264 219.459 2.74122 218.673 1.7632 218.673C0.785174 218.673 0 219.459 0 220.44C0 221.42 0.785174 222.207 1.7632 222.207Z" fill="#9747FF"/>
<path d="M21.5992 222.207C22.573 222.207 23.3624 221.416 23.3624 220.44C23.3624 219.464 22.573 218.673 21.5992 218.673C20.6254 218.673 19.836 219.464 19.836 220.44C19.836 221.416 20.6254 222.207 21.5992 222.207Z" fill="#9747FF"/>
<path d="M41.4351 222.207C42.4132 222.207 43.1983 221.42 43.1983 220.44C43.1983 219.459 42.4132 218.673 41.4351 218.673C40.4571 218.673 39.6719 219.459 39.6719 220.44C39.6719 221.42 40.4571 222.207 41.4351 222.207Z" fill="#9747FF"/>
<path d="M61.2711 222.207C62.2492 222.207 63.0343 221.42 63.0343 220.44C63.0343 219.459 62.2492 218.673 61.2711 218.673C60.2931 218.673 59.5079 219.459 59.5079 220.44C59.5079 221.42 60.2931 222.207 61.2711 222.207Z" fill="#9747FF"/>
<path d="M81.1071 222.207C82.0852 222.207 82.8703 221.42 82.8703 220.44C82.8703 219.459 82.0852 218.673 81.1071 218.673C80.1291 218.673 79.3439 219.459 79.3439 220.44C79.3439 221.42 80.1291 222.207 81.1071 222.207Z" fill="#9747FF"/>
<path d="M100.943 222.207C101.921 222.207 102.706 221.42 102.706 220.44C102.706 219.459 101.921 218.673 100.943 218.673C99.9651 218.673 99.1799 219.459 99.1799 220.44C99.1799 221.42 99.9651 222.207 100.943 222.207Z" fill="#9747FF"/>
<path d="M120.779 222.207C121.753 222.207 122.542 221.416 122.542 220.44C122.542 219.464 121.753 218.673 120.779 218.673C119.805 218.673 119.016 219.464 119.016 220.44C119.016 221.416 119.805 222.207 120.779 222.207Z" fill="#9747FF"/>
<path d="M140.615 222.207C141.593 222.207 142.378 221.42 142.378 220.44C142.378 219.459 141.593 218.673 140.615 218.673C139.637 218.673 138.852 219.459 138.852 220.44C138.852 221.42 139.637 222.207 140.615 222.207Z" fill="#9747FF"/>
<path d="M160.451 222.207C161.429 222.207 162.214 221.42 162.214 220.44C162.214 219.459 161.429 218.673 160.451 218.673C159.473 218.673 158.688 219.459 158.688 220.44C158.688 221.42 159.473 222.207 160.451 222.207Z" fill="#9747FF"/>
<path d="M180.287 222.207C181.265 222.207 182.05 221.42 182.05 220.44C182.05 219.459 181.265 218.673 180.287 218.673C179.309 218.673 178.524 219.459 178.524 220.44C178.524 221.42 179.309 222.207 180.287 222.207Z" fill="#9747FF"/>
<path d="M200.123 222.207C201.101 222.207 201.886 221.42 201.886 220.44C201.886 219.459 201.101 218.673 200.123 218.673C199.145 218.673 198.36 219.459 198.36 220.44C198.36 221.42 199.145 222.207 200.123 222.207Z" fill="#9747FF"/>
<path d="M219.959 222.207C220.933 222.207 221.722 221.416 221.722 220.44C221.722 219.464 220.933 218.673 219.959 218.673C218.985 218.673 218.196 219.464 218.196 220.44C218.196 221.416 218.985 222.207 219.959 222.207Z" fill="#9747FF"/>
<path d="M239.795 222.207C240.773 222.207 241.558 221.42 241.558 220.44C241.558 219.459 240.773 218.673 239.795 218.673C238.817 218.673 238.032 219.459 238.032 220.44C238.032 221.42 238.817 222.207 239.795 222.207Z" fill="#9747FF"/>
<path d="M259.631 222.207C260.609 222.207 261.394 221.42 261.394 220.44C261.394 219.459 260.609 218.673 259.631 218.673C258.653 218.673 257.868 219.459 257.868 220.44C257.868 221.42 258.653 222.207 259.631 222.207Z" fill="#9747FF"/>
<path d="M279.467 222.207C280.445 222.207 281.23 221.42 281.23 220.44C281.23 219.459 280.445 218.673 279.467 218.673C278.489 218.673 277.704 219.459 277.704 220.44C277.704 221.42 278.489 222.207 279.467 222.207Z" fill="#9747FF"/>
<path d="M299.303 222.207C300.281 222.207 301.066 221.42 301.066 220.44C301.066 219.459 300.281 218.673 299.303 218.673C298.325 218.673 297.54 219.459 297.54 220.44C297.54 221.42 298.325 222.207 299.303 222.207Z" fill="#9747FF"/>
<path d="M319.139 222.207C320.113 222.207 320.902 221.416 320.902 220.44C320.902 219.464 320.113 218.673 319.139 218.673C318.165 218.673 317.376 219.464 317.376 220.44C317.376 221.416 318.165 222.207 319.139 222.207Z" fill="#9747FF"/>
<path d="M338.975 222.207C339.953 222.207 340.738 221.42 340.738 220.44C340.738 219.459 339.953 218.673 338.975 218.673C337.997 218.673 337.212 219.459 337.212 220.44C337.212 221.42 337.997 222.207 338.975 222.207Z" fill="#9747FF"/>
<path d="M358.811 222.207C359.789 222.207 360.574 221.42 360.574 220.44C360.574 219.459 359.789 218.673 358.811 218.673C357.833 218.673 357.048 219.459 357.048 220.44C357.048 221.42 357.833 222.207 358.811 222.207Z" fill="#9747FF"/>
<path d="M378.647 222.207C379.625 222.207 380.41 221.42 380.41 220.44C380.41 219.459 379.625 218.673 378.647 218.673C377.669 218.673 376.884 219.459 376.884 220.44C376.884 221.42 377.669 222.207 378.647 222.207Z" fill="#9747FF"/>
<path d="M398.483 222.207C399.461 222.207 400.246 221.42 400.246 220.44C400.246 219.459 399.461 218.673 398.483 218.673C397.505 218.673 396.72 219.459 396.72 220.44C396.72 221.42 397.505 222.207 398.483 222.207Z" fill="#9747FF"/>
<path d="M418.319 222.207C419.293 222.207 420.082 221.416 420.082 220.44C420.082 219.464 419.293 218.673 418.319 218.673C417.345 218.673 416.556 219.464 416.556 220.44C416.556 221.416 417.345 222.207 418.319 222.207Z" fill="#9747FF"/>
</svg>
