<svg width="100" height="80" viewBox="0 0 100 80" fill="none" xmlns="http://www.w3.org/2000/svg">
<path fill-rule="evenodd" clip-rule="evenodd" d="M26.3672 0.896484H12.5244L1.74023 4.35059V15.583L12.5244 12.1289V25.9717H0V36.334H38.0215V25.9717H26.3672V0.896484ZM52.1807 14.2646C51.5479 13.7373 51.4424 13.2627 51.4424 12.9199C51.4424 9.28125 58.6406 8.96484 60.8027 8.96484C70.9014 8.96484 71.6396 11.0479 71.6396 11.6807L71.666 15.1348L70.8486 15.3193C69.6094 15.6094 67.7637 15.8203 65.2588 16.0049C62.7539 16.1631 60.249 16.1367 57.7441 15.9258C55.2393 15.6885 53.3936 15.1348 52.1807 14.2646ZM39.0762 12.709C39.0762 15.2139 40.0781 17.3232 42.082 19.0371C43.9541 20.54 46.2744 21.6211 49.0957 22.3066C51.917 22.9658 54.8174 23.3877 57.7969 23.5195C60.7764 23.6514 63.4131 23.625 65.707 23.4668C68.0273 23.3086 69.6094 23.1504 70.4268 22.9922L71.666 22.7812V23.6514C71.666 27.1055 67.1045 27.4746 65.1797 27.4746H41.792V36.3076H60.9609C75.1729 36.3076 84.0322 33.9873 84.0322 22.3594V13.9746C84.0322 2.32031 75.1729 0 60.9609 0C42.8467 0 39.0762 6.9082 39.0762 12.709ZM30.6914 65.9678C30.6914 67.9717 28.6875 69.3691 22.4648 69.3691C16.2949 69.3691 14.2383 68.0244 14.2383 65.9678C14.2383 63.9375 16.2422 62.6719 22.4648 62.6719C28.7402 62.6719 30.6914 63.9902 30.6914 65.9678ZM15.8994 53.1006C15.8994 51.624 17.0859 50.7803 22.4648 50.7803C27.8438 50.7803 29.0566 51.624 29.0566 53.1006C29.0566 54.6035 27.9229 55.4473 22.4648 55.4473C17.0332 55.4473 15.8994 54.6035 15.8994 53.1006ZM44.9561 67.7607C44.9561 63.0938 42.6094 59.9824 36.6768 58.374C39.6299 56.8447 41.1064 54.498 41.1064 51.3604C41.1064 45.0059 36.0439 42.0264 22.4648 42.0264C8.88574 42.0264 3.82324 44.9795 3.82324 51.3604C3.82324 54.5508 5.2998 56.8975 8.2793 58.374C2.29395 59.9824 0 63.0938 0 67.7607C0 75.2227 5.03613 79.1777 22.4648 79.1777C39.8672 79.1777 44.9561 75.1699 44.9561 67.7607ZM46.0371 53.2588H72.8262L50.3613 78.334H67.6582L87.5127 53.2588V42.8965H46.0371V53.2588ZM92.9053 73.0332V76.2363H99.4678V73.6777H95.9668L99.4678 71.1143V69.835L95.9668 67.2715H99.4678V64.7129H92.9053V67.9111L96.1865 70.4746L92.9053 73.0332ZM95.2686 59.5566L92.915 61.4756V64.5176L97.2363 60.8359H99.4775V58.2773H97.2363L92.915 54.5957V57.6328L95.2686 59.5566ZM94.9951 49.0391C94.9951 48.375 95.5322 47.999 96.1963 47.999C96.8555 47.999 97.3975 48.375 97.3975 49.0391V51.8418H94.9951V49.0391ZM92.915 48.5605V54.4004H99.4775V48.5605C99.502 46.7588 97.9785 45.4209 96.1963 45.4355C94.4043 45.4209 92.8906 46.7588 92.915 48.5605ZM92.9102 38.3506V44.6738H99.4727V42.1152H97.8711V39.8301L99.4727 38.5947V35.8701L97.6318 37.3008C97.4316 36.8711 97.1289 36.5244 96.7334 36.2656C96.333 36.002 95.8838 35.8701 95.3906 35.8701C94.0332 35.8506 92.8955 36.998 92.9102 38.3506ZM94.8291 42.1152V38.9951C94.8291 38.6826 95.0781 38.4336 95.3906 38.4336C95.542 38.4336 95.6738 38.4873 95.7861 38.5996C95.8936 38.707 95.9473 38.8389 95.9473 38.9951V42.1152H94.8291ZM92.915 35.0742H99.4775V27.3936H97.793V32.5156H96.9531V27.3936H95.4346V32.5156H94.5947V27.3936H92.915V35.0742ZM96.7529 23.0527L94.8145 22.1494L96.7529 21.251V23.0527ZM92.915 23.6729L99.4775 27.1934V24.3125L98.3545 23.7949V20.5088L99.4775 19.9912V17.1104L92.915 20.6309V23.6729ZM92.9053 16.9102H99.4678V14.3516H95.9668L99.4678 11.7881V10.5088L95.9668 7.94531H99.4678V5.38672L92.9053 5.38672V8.58496L96.1865 11.1484L92.9053 13.707V16.9102Z" fill="#00A3B1"/>
</svg>
