<svg width="62" height="46" viewBox="0 0 62 46" fill="none" xmlns="http://www.w3.org/2000/svg">
<path d="M14.016 0.607994H28.864L21.696 31.2L2.368 25.184L14.016 0.607994ZM14.784 17.376C17.344 17.376 19.648 18.016 21.696 19.296C23.8293 20.4907 25.4933 22.1547 26.688 24.288C27.968 26.336 28.608 28.64 28.608 31.2C28.608 33.6747 27.968 35.9787 26.688 38.112C25.4933 40.2453 23.8293 41.952 21.696 43.232C19.648 44.4267 17.344 45.024 14.784 45.024C12.3093 45.024 10.0053 44.4267 7.872 43.232C5.73867 41.952 4.032 40.2453 2.752 38.112C1.55733 35.9787 0.96 33.6747 0.96 31.2C0.96 28.64 1.55733 26.336 2.752 24.288C4.032 22.1547 5.73867 20.4907 7.872 19.296C10.0053 18.016 12.3093 17.376 14.784 17.376ZM46.272 0.607994H61.12L53.952 31.2L34.624 25.184L46.272 0.607994ZM47.04 17.376C49.6 17.376 51.904 18.016 53.952 19.296C56.0853 20.4907 57.7493 22.1547 58.944 24.288C60.224 26.336 60.864 28.64 60.864 31.2C60.864 33.6747 60.224 35.9787 58.944 38.112C57.7493 40.2453 56.0853 41.952 53.952 43.232C51.904 44.4267 49.6 45.024 47.04 45.024C44.5653 45.024 42.2613 44.4267 40.128 43.232C37.9947 41.952 36.288 40.2453 35.008 38.112C33.8133 35.9787 33.216 33.6747 33.216 31.2C33.216 28.64 33.8133 26.336 35.008 24.288C36.288 22.1547 37.9947 20.4907 40.128 19.296C42.2613 18.016 44.5653 17.376 47.04 17.376Z" fill="black"/>
</svg>
